<svg xmlns="http://www.w3.org/2000/svg" xmlns:xlink="http://www.w3.org/1999/xlink" width="288" zoomAndPan="magnify" viewBox="0 0 216 143.999998" height="192" preserveAspectRatio="xMidYMid meet" version="1.0"><defs><g/></defs><rect x="-21.6" width="259.2" fill="#ffffff" y="-14.4" height="172.799997" fill-opacity="1"/><rect x="-21.6" width="259.2" fill="#ffffff" y="-14.4" height="172.799997" fill-opacity="1"/><g fill="#222222" fill-opacity="1"><g transform="translate(8.476146, 83.332025)"><g><path d="M 32.011719 -10.488281 C 32.164062 -8.46875 31.570312 -6.628906 30.222656 -4.972656 C 28.875 -3.316406 27.0625 -2.007812 24.785156 -1.050781 C 22.503906 -0.0898438 20.019531 0.386719 17.324219 0.386719 C 14.683594 0.386719 12.261719 -0.0507812 10.0625 -0.933594 C 7.859375 -1.8125 6.085938 -3.015625 4.738281 -4.546875 C 3.394531 -6.074219 2.71875 -7.796875 2.71875 -9.710938 C 2.71875 -11.371094 3.316406 -12.78125 4.507812 -13.945312 C 5.699219 -15.113281 7.097656 -15.695312 8.703125 -15.695312 C 10.359375 -15.695312 11.785156 -15.113281 12.976562 -13.945312 C 14.167969 -12.78125 14.761719 -11.371094 14.761719 -9.710938 C 14.761719 -8.3125 14.464844 -7.238281 13.867188 -6.488281 C 13.273438 -5.738281 12.664062 -5.113281 12.042969 -4.621094 C 11.421875 -4.128906 11.109375 -3.546875 11.109375 -2.875 C 11.109375 -2.304688 11.394531 -1.761719 11.964844 -1.242188 C 12.535156 -0.726562 13.207031 -0.414062 13.984375 -0.3125 C 14.503906 -0.257812 14.996094 -0.207031 15.460938 -0.15625 C 15.925781 -0.105469 16.546875 -0.078125 17.324219 -0.078125 C 18.722656 -0.078125 19.914062 -0.570312 20.898438 -1.554688 C 21.882812 -2.539062 22.375 -3.730469 22.375 -5.128906 C 22.375 -6.421875 21.898438 -7.679688 20.9375 -8.894531 C 19.980469 -10.113281 18.761719 -11.332031 17.285156 -12.546875 C 15.8125 -13.765625 14.230469 -15.019531 12.546875 -16.316406 C 10.863281 -17.609375 9.285156 -18.945312 7.808594 -20.316406 C 6.332031 -21.691406 5.113281 -23.164062 4.15625 -24.746094 C 3.199219 -26.324219 2.71875 -28.023438 2.71875 -29.835938 C 2.71875 -31.90625 3.417969 -33.617188 4.816406 -34.960938 C 6.214844 -36.308594 7.925781 -37.304688 9.945312 -37.953125 C 11.964844 -38.601562 13.933594 -38.925781 15.847656 -38.925781 C 17.714844 -38.925781 19.28125 -38.742188 20.550781 -38.378906 C 21.820312 -38.019531 22.957031 -37.679688 23.96875 -37.371094 C 24.980469 -37.058594 26.027344 -36.929688 27.113281 -36.980469 C 27.53125 -37.035156 27.90625 -37.136719 28.242188 -37.292969 C 28.578125 -37.449219 28.851562 -37.628906 29.058594 -37.835938 L 29.445312 -37.835938 L 29.445312 -25.25 C 29.445312 -25.25 29.40625 -25.25 29.328125 -25.25 C 29.25 -25.25 29.160156 -25.25 29.058594 -25.25 C 28.746094 -26.804688 28.230469 -28.539062 27.503906 -30.457031 C 26.777344 -32.371094 25.703125 -34.082031 24.28125 -35.582031 C 22.855469 -37.085938 20.875 -37.992188 18.335938 -38.304688 C 16.988281 -38.511719 15.824219 -38.25 14.839844 -37.527344 C 13.855469 -36.800781 13.3125 -35.609375 13.207031 -33.953125 C 13.105469 -32.292969 13.636719 -30.765625 14.800781 -29.367188 C 15.964844 -27.96875 17.457031 -26.585938 19.269531 -25.210938 C 21.082031 -23.839844 22.933594 -22.425781 24.824219 -20.976562 C 26.714844 -19.527344 28.332031 -17.949219 29.679688 -16.238281 C 31.027344 -14.527344 31.800781 -12.613281 32.011719 -10.488281 Z M 32.011719 -10.488281 "/></g></g></g><g fill="#222222" fill-opacity="1"><g transform="translate(34.967913, 83.332025)"><g><path d="M 20.433594 -38.925781 C 23.695312 -38.925781 26.660156 -38.042969 29.328125 -36.28125 C 31.996094 -34.523438 34.132812 -32.152344 35.738281 -29.175781 C 37.34375 -26.195312 38.148438 -22.894531 38.148438 -19.269531 C 38.148438 -15.640625 37.34375 -12.339844 35.738281 -9.363281 C 34.132812 -6.382812 31.996094 -4.015625 29.328125 -2.253906 C 26.660156 -0.492188 23.695312 0.386719 20.433594 0.386719 C 17.171875 0.386719 14.203125 -0.492188 11.539062 -2.253906 C 8.871094 -4.015625 6.734375 -6.382812 5.128906 -9.363281 C 3.523438 -12.339844 2.71875 -15.640625 2.71875 -19.269531 C 2.71875 -22.894531 3.523438 -26.195312 5.128906 -29.175781 C 6.734375 -32.152344 8.871094 -34.523438 11.539062 -36.28125 C 14.203125 -38.042969 17.171875 -38.925781 20.433594 -38.925781 Z M 20.433594 -0.078125 C 24.421875 -0.078125 26.414062 -6.472656 26.414062 -19.269531 C 26.414062 -32.0625 24.421875 -38.457031 20.433594 -38.457031 C 16.394531 -38.457031 14.375 -32.0625 14.375 -19.269531 C 14.375 -6.472656 16.394531 -0.078125 20.433594 -0.078125 Z M 20.433594 -0.078125 "/></g></g></g><g fill="#222222" fill-opacity="1"><g transform="translate(67.51952, 83.332025)"><g><path d="M 16.78125 -52.988281 L 16.78125 -4.273438 C 16.78125 -3.339844 17.09375 -2.511719 17.714844 -1.785156 C 18.335938 -1.0625 19.085938 -0.621094 19.96875 -0.464844 L 19.96875 0 L 1.941406 0 L 1.941406 -0.464844 C 2.824219 -0.621094 3.574219 -1.0625 4.195312 -1.785156 C 4.816406 -2.511719 5.128906 -3.339844 5.128906 -4.273438 L 5.128906 -48.171875 C 5.128906 -49.101562 4.816406 -49.929688 4.195312 -50.65625 C 3.574219 -51.382812 2.824219 -51.820312 1.941406 -51.976562 L 1.941406 -52.445312 L 15.226562 -54.386719 C 15.28125 -54.386719 15.320312 -54.386719 15.34375 -54.386719 C 15.371094 -54.386719 15.410156 -54.386719 15.460938 -54.386719 C 16.339844 -54.386719 16.78125 -53.917969 16.78125 -52.988281 Z M 16.78125 -52.988281 "/></g></g></g><g fill="#222222" fill-opacity="1"><g transform="translate(81.114701, 83.332025)"><g><path d="M 32.011719 -10.488281 C 32.164062 -8.46875 31.570312 -6.628906 30.222656 -4.972656 C 28.875 -3.316406 27.0625 -2.007812 24.785156 -1.050781 C 22.503906 -0.0898438 20.019531 0.386719 17.324219 0.386719 C 14.683594 0.386719 12.261719 -0.0507812 10.0625 -0.933594 C 7.859375 -1.8125 6.085938 -3.015625 4.738281 -4.546875 C 3.394531 -6.074219 2.71875 -7.796875 2.71875 -9.710938 C 2.71875 -11.371094 3.316406 -12.78125 4.507812 -13.945312 C 5.699219 -15.113281 7.097656 -15.695312 8.703125 -15.695312 C 10.359375 -15.695312 11.785156 -15.113281 12.976562 -13.945312 C 14.167969 -12.78125 14.761719 -11.371094 14.761719 -9.710938 C 14.761719 -8.3125 14.464844 -7.238281 13.867188 -6.488281 C 13.273438 -5.738281 12.664062 -5.113281 12.042969 -4.621094 C 11.421875 -4.128906 11.109375 -3.546875 11.109375 -2.875 C 11.109375 -2.304688 11.394531 -1.761719 11.964844 -1.242188 C 12.535156 -0.726562 13.207031 -0.414062 13.984375 -0.3125 C 14.503906 -0.257812 14.996094 -0.207031 15.460938 -0.15625 C 15.925781 -0.105469 16.546875 -0.078125 17.324219 -0.078125 C 18.722656 -0.078125 19.914062 -0.570312 20.898438 -1.554688 C 21.882812 -2.539062 22.375 -3.730469 22.375 -5.128906 C 22.375 -6.421875 21.898438 -7.679688 20.9375 -8.894531 C 19.980469 -10.113281 18.761719 -11.332031 17.285156 -12.546875 C 15.8125 -13.765625 14.230469 -15.019531 12.546875 -16.316406 C 10.863281 -17.609375 9.285156 -18.945312 7.808594 -20.316406 C 6.332031 -21.691406 5.113281 -23.164062 4.15625 -24.746094 C 3.199219 -26.324219 2.71875 -28.023438 2.71875 -29.835938 C 2.71875 -31.90625 3.417969 -33.617188 4.816406 -34.960938 C 6.214844 -36.308594 7.925781 -37.304688 9.945312 -37.953125 C 11.964844 -38.601562 13.933594 -38.925781 15.847656 -38.925781 C 17.714844 -38.925781 19.28125 -38.742188 20.550781 -38.378906 C 21.820312 -38.019531 22.957031 -37.679688 23.96875 -37.371094 C 24.980469 -37.058594 26.027344 -36.929688 27.113281 -36.980469 C 27.53125 -37.035156 27.90625 -37.136719 28.242188 -37.292969 C 28.578125 -37.449219 28.851562 -37.628906 29.058594 -37.835938 L 29.445312 -37.835938 L 29.445312 -25.25 C 29.445312 -25.25 29.40625 -25.25 29.328125 -25.25 C 29.25 -25.25 29.160156 -25.25 29.058594 -25.25 C 28.746094 -26.804688 28.230469 -28.539062 27.503906 -30.457031 C 26.777344 -32.371094 25.703125 -34.082031 24.28125 -35.582031 C 22.855469 -37.085938 20.875 -37.992188 18.335938 -38.304688 C 16.988281 -38.511719 15.824219 -38.25 14.839844 -37.527344 C 13.855469 -36.800781 13.3125 -35.609375 13.207031 -33.953125 C 13.105469 -32.292969 13.636719 -30.765625 14.800781 -29.367188 C 15.964844 -27.96875 17.457031 -26.585938 19.269531 -25.210938 C 21.082031 -23.839844 22.933594 -22.425781 24.824219 -20.976562 C 26.714844 -19.527344 28.332031 -17.949219 29.679688 -16.238281 C 31.027344 -14.527344 31.800781 -12.613281 32.011719 -10.488281 Z M 32.011719 -10.488281 "/></g></g></g><g fill="#222222" fill-opacity="1"><g transform="translate(107.606468, 83.332025)"><g><path d="M 20.976562 -2.796875 C 21.859375 -2.796875 22.636719 -3.03125 23.308594 -3.496094 L 23.308594 -2.953125 C 22.375 -2.277344 21.105469 -1.554688 19.5 -0.777344 C 17.894531 0 16.003906 0.386719 13.828125 0.386719 C 11.445312 0.386719 9.402344 -0.464844 7.691406 -2.175781 C 5.984375 -3.882812 5.128906 -5.929688 5.128906 -8.3125 L 5.128906 -37.679688 L 1.941406 -37.679688 L 1.941406 -38.148438 C 4.84375 -38.148438 7.550781 -38.78125 10.0625 -40.050781 C 12.574219 -41.320312 14.660156 -43.015625 16.316406 -45.140625 L 16.78125 -45.140625 L 16.78125 -38.148438 L 21.832031 -38.148438 L 21.832031 -37.679688 L 16.78125 -37.679688 L 16.78125 -6.992188 C 16.78125 -5.851562 17.195312 -4.867188 18.023438 -4.039062 C 18.855469 -3.210938 19.835938 -2.796875 20.976562 -2.796875 Z M 20.976562 -2.796875 "/></g></g></g><g fill="#222222" fill-opacity="1"><g transform="translate(123.765427, 83.332025)"><g><path d="M 5.128906 -4.273438 L 5.128906 -31.933594 C 5.128906 -32.917969 4.816406 -33.757812 4.195312 -34.457031 C 3.574219 -35.15625 2.824219 -35.582031 1.941406 -35.738281 L 1.941406 -36.207031 L 15.226562 -38.148438 C 15.28125 -38.148438 15.320312 -38.148438 15.34375 -38.148438 C 15.371094 -38.148438 15.410156 -38.148438 15.460938 -38.148438 C 16.339844 -38.148438 16.78125 -37.707031 16.78125 -36.828125 L 16.78125 -4.273438 C 16.78125 -3.339844 17.09375 -2.511719 17.714844 -1.785156 C 18.335938 -1.0625 19.085938 -0.621094 19.96875 -0.464844 L 19.96875 0 L 1.941406 0 L 1.941406 -0.464844 C 2.824219 -0.621094 3.574219 -1.0625 4.195312 -1.785156 C 4.816406 -2.511719 5.128906 -3.339844 5.128906 -4.273438 Z M 17.015625 -48.324219 C 17.015625 -46.71875 16.417969 -45.320312 15.226562 -44.128906 C 14.035156 -42.9375 12.613281 -42.34375 10.953125 -42.34375 C 9.296875 -42.34375 7.886719 -42.9375 6.71875 -44.128906 C 5.554688 -45.320312 4.972656 -46.71875 4.972656 -48.324219 C 4.972656 -49.984375 5.554688 -51.40625 6.71875 -52.597656 C 7.886719 -53.789062 9.296875 -54.386719 10.953125 -54.386719 C 12.613281 -54.386719 14.035156 -53.789062 15.226562 -52.597656 C 16.417969 -51.40625 17.015625 -49.984375 17.015625 -48.324219 Z M 17.015625 -48.324219 "/></g></g></g><g fill="#222222" fill-opacity="1"><g transform="translate(137.360603, 83.332025)"><g><path d="M 20.433594 -38.457031 C 19.761719 -38.457031 18.945312 -37.785156 17.984375 -36.4375 C 17.027344 -35.089844 16.1875 -33.292969 15.460938 -31.039062 C 14.734375 -28.785156 14.375 -26.285156 14.375 -23.542969 C 14.375 -20.121094 14.941406 -17.003906 16.082031 -14.179688 C 17.222656 -11.355469 18.75 -9.117188 20.667969 -7.457031 C 22.582031 -5.800781 24.707031 -4.972656 27.039062 -4.972656 C 28.539062 -4.972656 29.976562 -5.335938 31.347656 -6.058594 C 32.722656 -6.785156 33.953125 -7.796875 35.039062 -9.089844 L 35.429688 -8.855469 C 33.875 -6.058594 31.777344 -3.820312 29.136719 -2.136719 C 26.492188 -0.453125 23.59375 0.386719 20.433594 0.386719 C 17.171875 0.386719 14.203125 -0.492188 11.539062 -2.253906 C 8.871094 -4.015625 6.734375 -6.382812 5.128906 -9.363281 C 3.523438 -12.339844 2.71875 -15.640625 2.71875 -19.269531 C 2.71875 -22.894531 3.523438 -26.195312 5.128906 -29.175781 C 6.734375 -32.152344 8.871094 -34.523438 11.539062 -36.28125 C 14.203125 -38.042969 17.171875 -38.925781 20.433594 -38.925781 C 23.074219 -38.925781 25.535156 -38.355469 27.8125 -37.214844 C 30.09375 -36.074219 31.933594 -34.664062 33.332031 -32.980469 C 34.730469 -31.296875 35.429688 -29.628906 35.429688 -27.96875 C 35.429688 -26.3125 34.832031 -24.902344 33.640625 -23.734375 C 32.449219 -22.570312 31.027344 -21.988281 29.367188 -21.988281 C 27.761719 -21.988281 26.363281 -22.570312 25.171875 -23.734375 C 23.980469 -24.902344 23.386719 -26.3125 23.386719 -27.96875 C 23.386719 -29.316406 23.671875 -30.367188 24.242188 -31.117188 C 24.808594 -31.867188 25.367188 -32.554688 25.910156 -33.175781 C 26.453125 -33.796875 26.726562 -34.546875 26.726562 -35.429688 C 26.726562 -36.359375 26.339844 -37.035156 25.5625 -37.449219 C 24.785156 -37.863281 23.890625 -38.132812 22.878906 -38.265625 C 21.871094 -38.394531 21.054688 -38.457031 20.433594 -38.457031 Z M 20.433594 -38.457031 "/></g></g></g><g fill="#222222" fill-opacity="1"><g transform="translate(166.416159, 83.332025)"><g><path d="M 27.039062 -4.972656 C 28.539062 -4.972656 29.976562 -5.335938 31.347656 -6.058594 C 32.722656 -6.785156 33.953125 -7.796875 35.039062 -9.089844 L 35.429688 -8.855469 C 33.875 -6.058594 31.777344 -3.820312 29.136719 -2.136719 C 26.492188 -0.453125 23.59375 0.386719 20.433594 0.386719 C 17.171875 0.386719 14.203125 -0.492188 11.539062 -2.253906 C 8.871094 -4.015625 6.734375 -6.382812 5.128906 -9.363281 C 3.523438 -12.339844 2.71875 -15.640625 2.71875 -19.269531 C 2.71875 -22.894531 3.523438 -26.195312 5.128906 -29.175781 C 6.734375 -32.152344 8.871094 -34.523438 11.539062 -36.28125 C 14.203125 -38.042969 17.171875 -38.925781 20.433594 -38.925781 C 23.28125 -38.925781 25.832031 -38.25 28.085938 -36.90625 C 30.339844 -35.558594 32.230469 -33.730469 33.757812 -31.425781 C 35.285156 -29.121094 36.335938 -26.492188 36.90625 -23.542969 L 14.375 -23.542969 C 14.375 -20.121094 14.941406 -17.003906 16.082031 -14.179688 C 17.222656 -11.355469 18.75 -9.117188 20.667969 -7.457031 C 22.582031 -5.800781 24.707031 -4.972656 27.039062 -4.972656 Z M 20.433594 -38.457031 C 19.347656 -38.457031 18.453125 -38.058594 17.753906 -37.253906 C 17.054688 -36.453125 16.472656 -35.414062 16.003906 -34.144531 C 15.539062 -32.878906 15.203125 -31.570312 14.996094 -30.222656 C 14.789062 -28.875 14.632812 -27.632812 14.527344 -26.492188 C 14.425781 -25.355469 14.375 -24.523438 14.375 -24.007812 L 26.339844 -24.007812 C 25.871094 -33.640625 23.902344 -38.457031 20.433594 -38.457031 Z M 20.433594 -38.457031 "/></g></g></g><g fill="#222222" fill-opacity="1"><g transform="translate(19.04724, 95.945974)"><g><path d="M 1.386719 -3.449219 L 0.0664062 -3.449219 L 0.0664062 -3.917969 L 3.246094 -3.917969 L 3.246094 -3.449219 L 1.914062 -3.449219 L 1.914062 0 L 1.386719 0 Z M 1.386719 -3.449219 "/></g></g></g><g fill="#222222" fill-opacity="1"><g transform="translate(22.214508, 95.945974)"><g><path d="M 0.972656 -2.132812 L 2.199219 -2.132812 C 2.480469 -2.132812 2.6875 -2.191406 2.808594 -2.308594 C 2.933594 -2.425781 2.996094 -2.59375 2.996094 -2.8125 C 2.996094 -3.011719 2.941406 -3.167969 2.835938 -3.285156 C 2.726562 -3.40625 2.546875 -3.464844 2.285156 -3.464844 L 0.972656 -3.464844 Z M 0.972656 0 L 0.441406 0 L 0.441406 -3.917969 L 2.253906 -3.917969 C 2.675781 -3.917969 2.992188 -3.828125 3.210938 -3.648438 C 3.425781 -3.46875 3.535156 -3.207031 3.535156 -2.863281 C 3.535156 -2.640625 3.492188 -2.449219 3.40625 -2.300781 C 3.316406 -2.148438 3.179688 -2.023438 2.996094 -1.925781 C 3.15625 -1.867188 3.269531 -1.785156 3.339844 -1.679688 C 3.414062 -1.574219 3.453125 -1.410156 3.464844 -1.1875 L 3.5 -0.457031 C 3.503906 -0.335938 3.519531 -0.253906 3.554688 -0.203125 C 3.589844 -0.15625 3.640625 -0.117188 3.699219 -0.0898438 L 3.699219 0 L 3.046875 0 C 3.011719 -0.0976562 2.988281 -0.246094 2.972656 -0.445312 C 2.960938 -0.644531 2.953125 -0.824219 2.953125 -0.984375 C 2.953125 -1.0625 2.945312 -1.144531 2.929688 -1.226562 C 2.917969 -1.3125 2.886719 -1.386719 2.835938 -1.453125 C 2.789062 -1.523438 2.71875 -1.578125 2.628906 -1.617188 C 2.535156 -1.660156 2.410156 -1.679688 2.253906 -1.679688 L 0.972656 -1.679688 Z M 0.972656 0 "/></g></g></g><g fill="#222222" fill-opacity="1"><g transform="translate(25.96263, 95.945974)"><g><path d="M 2.402344 -1.609375 L 1.824219 -3.332031 L 1.8125 -3.332031 L 1.183594 -1.609375 Z M 1.019531 -1.140625 L 0.609375 0 L 0.0664062 0 L 1.539062 -3.917969 L 2.140625 -3.917969 L 3.558594 0 L 2.980469 0 L 2.59375 -1.140625 Z M 1.019531 -1.140625 "/></g></g></g><g fill="#222222" fill-opacity="1"><g transform="translate(29.454963, 95.945974)"><g><path d="M 2.910156 -3.917969 L 3.503906 -3.917969 L 2.066406 0 L 1.511719 0 L 0.0820312 -3.917969 L 0.671875 -3.917969 L 1.789062 -0.578125 L 1.800781 -0.578125 Z M 2.910156 -3.917969 "/></g></g></g><g fill="#222222" fill-opacity="1"><g transform="translate(32.886013, 95.945974)"><g><path d="M 3.332031 0 L 0.441406 0 L 0.441406 -3.917969 L 3.296875 -3.917969 L 3.296875 -3.449219 L 0.972656 -3.449219 L 0.972656 -2.25 L 3.113281 -2.25 L 3.113281 -1.78125 L 0.972656 -1.78125 L 0.972656 -0.46875 L 3.332031 -0.46875 Z M 3.332031 0 "/></g></g></g><g fill="#222222" fill-opacity="1"><g transform="translate(36.28509, 95.945974)"><g><path d="M 0.964844 -0.46875 L 2.957031 -0.46875 L 2.957031 0 L 0.441406 0 L 0.441406 -3.917969 L 0.964844 -3.917969 Z M 0.964844 -0.46875 "/></g></g></g><g fill="#222222" fill-opacity="1"><g transform="translate(39.172589, 95.945974)"><g/></g></g><g fill="#222222" fill-opacity="1"><g transform="translate(40.357493, 95.945974)"><g><path d="M 3.164062 -2.738281 C 3.105469 -3.003906 2.984375 -3.207031 2.796875 -3.34375 C 2.609375 -3.484375 2.367188 -3.550781 2.066406 -3.550781 C 1.683594 -3.550781 1.371094 -3.410156 1.136719 -3.132812 C 0.902344 -2.851562 0.785156 -2.472656 0.785156 -2 C 0.785156 -1.449219 0.898438 -1.039062 1.117188 -0.769531 C 1.339844 -0.5 1.664062 -0.363281 2.082031 -0.363281 C 2.359375 -0.363281 2.597656 -0.457031 2.800781 -0.640625 C 3 -0.824219 3.132812 -1.089844 3.203125 -1.441406 L 3.71875 -1.441406 C 3.648438 -0.9375 3.457031 -0.554688 3.144531 -0.292969 C 2.832031 -0.0273438 2.453125 0.105469 2.003906 0.105469 C 1.46875 0.105469 1.042969 -0.078125 0.722656 -0.449219 C 0.398438 -0.816406 0.238281 -1.324219 0.238281 -1.980469 C 0.238281 -2.609375 0.40625 -3.109375 0.742188 -3.472656 C 1.078125 -3.839844 1.519531 -4.019531 2.066406 -4.019531 C 2.523438 -4.019531 2.890625 -3.902344 3.171875 -3.667969 C 3.457031 -3.433594 3.625 -3.125 3.675781 -2.738281 Z M 3.164062 -2.738281 "/></g></g></g><g fill="#222222" fill-opacity="1"><g transform="translate(44.15624, 95.945974)"><g><path d="M 3.488281 -1.957031 C 3.488281 -2.417969 3.367188 -2.796875 3.125 -3.097656 C 2.882812 -3.402344 2.546875 -3.550781 2.125 -3.550781 C 1.703125 -3.550781 1.371094 -3.402344 1.128906 -3.097656 C 0.882812 -2.796875 0.757812 -2.417969 0.757812 -1.957031 C 0.757812 -1.484375 0.882812 -1.101562 1.132812 -0.808594 C 1.382812 -0.511719 1.710938 -0.363281 2.125 -0.363281 C 2.527344 -0.363281 2.855469 -0.507812 3.109375 -0.796875 C 3.359375 -1.085938 3.488281 -1.472656 3.488281 -1.957031 Z M 4.03125 -1.957031 C 4.03125 -1.375 3.863281 -0.882812 3.523438 -0.488281 C 3.1875 -0.09375 2.71875 0.105469 2.125 0.105469 C 1.523438 0.105469 1.054688 -0.09375 0.71875 -0.488281 C 0.382812 -0.882812 0.214844 -1.375 0.214844 -1.957031 C 0.214844 -2.542969 0.382812 -3.035156 0.71875 -3.429688 C 1.054688 -3.824219 1.523438 -4.019531 2.125 -4.019531 C 2.738281 -4.019531 3.210938 -3.820312 3.539062 -3.417969 C 3.867188 -3.015625 4.03125 -2.53125 4.03125 -1.957031 Z M 4.03125 -1.957031 "/></g></g></g><g fill="#222222" fill-opacity="1"><g transform="translate(48.253407, 95.945974)"><g><path d="M 0.472656 -0.578125 L 1.042969 -0.578125 L 1.042969 0 L 0.472656 0 Z M 0.472656 -0.578125 "/></g></g></g><g fill="#222222" fill-opacity="1"><g transform="translate(187.531556, 115.664819)"><g><path d="M 2.75 -2.769531 C 2.738281 -3.019531 2.644531 -3.214844 2.472656 -3.355469 C 2.296875 -3.496094 2.066406 -3.566406 1.78125 -3.566406 C 1.492188 -3.566406 1.269531 -3.507812 1.117188 -3.390625 C 0.960938 -3.273438 0.882812 -3.101562 0.882812 -2.878906 C 0.882812 -2.761719 0.917969 -2.660156 0.984375 -2.574219 C 1.054688 -2.488281 1.175781 -2.425781 1.347656 -2.382812 L 2.46875 -2.128906 C 2.769531 -2.0625 2.992188 -1.9375 3.140625 -1.753906 C 3.285156 -1.570312 3.355469 -1.347656 3.355469 -1.082031 C 3.355469 -0.695312 3.214844 -0.398438 2.929688 -0.199219 C 2.648438 0.00390625 2.277344 0.105469 1.824219 0.105469 C 1.476562 0.105469 1.203125 0.0585938 1.003906 -0.03125 C 0.804688 -0.117188 0.625 -0.257812 0.472656 -0.453125 C 0.316406 -0.648438 0.238281 -0.917969 0.238281 -1.265625 L 0.734375 -1.265625 C 0.734375 -0.972656 0.832031 -0.75 1.027344 -0.589844 C 1.21875 -0.429688 1.484375 -0.347656 1.816406 -0.347656 C 2.140625 -0.347656 2.390625 -0.40625 2.574219 -0.519531 C 2.753906 -0.636719 2.84375 -0.796875 2.84375 -1.011719 C 2.84375 -1.203125 2.789062 -1.34375 2.683594 -1.441406 C 2.574219 -1.535156 2.363281 -1.617188 2.050781 -1.691406 L 1.207031 -1.890625 C 0.925781 -1.953125 0.714844 -2.066406 0.578125 -2.222656 C 0.441406 -2.382812 0.371094 -2.578125 0.371094 -2.8125 C 0.371094 -3.164062 0.488281 -3.453125 0.726562 -3.679688 C 0.964844 -3.90625 1.292969 -4.019531 1.71875 -4.019531 C 2.199219 -4.019531 2.566406 -3.921875 2.828125 -3.722656 C 3.089844 -3.519531 3.226562 -3.203125 3.246094 -2.769531 Z M 2.75 -2.769531 "/></g></g></g><g fill="#222222" fill-opacity="1"><g transform="translate(190.997245, 115.664819)"><g><path d="M 0.441406 -3.917969 L 0.972656 -3.917969 L 0.972656 0 L 0.441406 0 Z M 0.441406 -3.917969 "/></g></g></g><g fill="#222222" fill-opacity="1"><g transform="translate(192.256754, 115.664819)"><g><path d="M 3.035156 -3.917969 L 3.546875 -3.917969 L 3.546875 0 L 2.957031 0 L 0.960938 -3.164062 L 0.949219 -3.164062 L 0.949219 0 L 0.441406 0 L 0.441406 -3.917969 L 1.0625 -3.917969 L 3.023438 -0.753906 L 3.035156 -0.753906 Z M 3.035156 -3.917969 "/></g></g></g><g fill="#222222" fill-opacity="1"><g transform="translate(196.098132, 115.664819)"><g><path d="M 3.164062 -2.738281 C 3.105469 -3.003906 2.984375 -3.207031 2.796875 -3.34375 C 2.609375 -3.484375 2.367188 -3.550781 2.066406 -3.550781 C 1.683594 -3.550781 1.371094 -3.410156 1.136719 -3.132812 C 0.902344 -2.851562 0.785156 -2.472656 0.785156 -2 C 0.785156 -1.449219 0.898438 -1.039062 1.117188 -0.769531 C 1.339844 -0.5 1.664062 -0.363281 2.082031 -0.363281 C 2.359375 -0.363281 2.597656 -0.457031 2.800781 -0.640625 C 3 -0.824219 3.132812 -1.089844 3.203125 -1.441406 L 3.71875 -1.441406 C 3.648438 -0.9375 3.457031 -0.554688 3.144531 -0.292969 C 2.832031 -0.0273438 2.453125 0.105469 2.003906 0.105469 C 1.46875 0.105469 1.042969 -0.078125 0.722656 -0.449219 C 0.398438 -0.816406 0.238281 -1.324219 0.238281 -1.980469 C 0.238281 -2.609375 0.40625 -3.109375 0.742188 -3.472656 C 1.078125 -3.839844 1.519531 -4.019531 2.066406 -4.019531 C 2.523438 -4.019531 2.890625 -3.902344 3.171875 -3.667969 C 3.457031 -3.433594 3.625 -3.125 3.675781 -2.738281 Z M 3.164062 -2.738281 "/></g></g></g><g fill="#222222" fill-opacity="1"><g transform="translate(199.896879, 115.664819)"><g><path d="M 3.332031 0 L 0.441406 0 L 0.441406 -3.917969 L 3.296875 -3.917969 L 3.296875 -3.449219 L 0.972656 -3.449219 L 0.972656 -2.25 L 3.113281 -2.25 L 3.113281 -1.78125 L 0.972656 -1.78125 L 0.972656 -0.46875 L 3.332031 -0.46875 Z M 3.332031 0 "/></g></g></g><g fill="#222222" fill-opacity="1"><g transform="translate(191.744968, 121.121649)"><g><path d="M 0.238281 -2.460938 C 0.238281 -2.914062 0.355469 -3.253906 0.589844 -3.488281 C 0.820312 -3.71875 1.148438 -3.835938 1.566406 -3.835938 C 1.917969 -3.835938 2.207031 -3.730469 2.429688 -3.515625 C 2.652344 -3.304688 2.765625 -3.027344 2.765625 -2.691406 C 2.765625 -2.429688 2.703125 -2.207031 2.574219 -2.027344 C 2.445312 -1.847656 2.253906 -1.6875 2.003906 -1.550781 L 1.34375 -1.1875 C 0.953125 -0.976562 0.734375 -0.730469 0.683594 -0.453125 L 2.765625 -0.453125 L 2.765625 0 L 0.140625 0 C 0.15625 -0.359375 0.234375 -0.660156 0.375 -0.902344 C 0.519531 -1.140625 0.738281 -1.347656 1.042969 -1.519531 L 1.730469 -1.921875 C 1.914062 -2.027344 2.046875 -2.132812 2.128906 -2.246094 C 2.210938 -2.359375 2.253906 -2.515625 2.253906 -2.710938 C 2.253906 -2.90625 2.1875 -3.070312 2.050781 -3.207031 C 1.914062 -3.339844 1.726562 -3.40625 1.496094 -3.40625 C 1.238281 -3.40625 1.042969 -3.320312 0.917969 -3.152344 C 0.789062 -2.980469 0.722656 -2.75 0.71875 -2.460938 Z M 0.238281 -2.460938 "/></g></g></g><g fill="#222222" fill-opacity="1"><g transform="translate(194.632467, 121.121649)"><g><path d="M 2.316406 -1.863281 C 2.316406 -2.378906 2.25 -2.761719 2.113281 -3.019531 C 1.976562 -3.277344 1.777344 -3.40625 1.515625 -3.40625 C 1.257812 -3.40625 1.058594 -3.277344 0.921875 -3.019531 C 0.785156 -2.761719 0.714844 -2.378906 0.714844 -1.863281 C 0.714844 -1.367188 0.78125 -0.988281 0.917969 -0.722656 C 1.054688 -0.460938 1.253906 -0.328125 1.515625 -0.328125 C 1.777344 -0.328125 1.976562 -0.457031 2.113281 -0.710938 C 2.25 -0.964844 2.316406 -1.351562 2.316406 -1.863281 Z M 2.832031 -1.863281 C 2.832031 -1.234375 2.71875 -0.75 2.492188 -0.410156 C 2.265625 -0.0664062 1.9375 0.105469 1.515625 0.105469 C 1.078125 0.105469 0.75 -0.0742188 0.53125 -0.425781 C 0.3125 -0.78125 0.203125 -1.261719 0.203125 -1.863281 C 0.203125 -2.484375 0.3125 -2.96875 0.539062 -3.316406 C 0.761719 -3.664062 1.089844 -3.835938 1.515625 -3.835938 C 1.9375 -3.835938 2.265625 -3.664062 2.492188 -3.320312 C 2.71875 -2.972656 2.832031 -2.488281 2.832031 -1.863281 Z M 2.832031 -1.863281 "/></g></g></g><g fill="#222222" fill-opacity="1"><g transform="translate(197.519966, 121.121649)"><g><path d="M 0.238281 -2.460938 C 0.238281 -2.914062 0.355469 -3.253906 0.589844 -3.488281 C 0.820312 -3.71875 1.148438 -3.835938 1.566406 -3.835938 C 1.917969 -3.835938 2.207031 -3.730469 2.429688 -3.515625 C 2.652344 -3.304688 2.765625 -3.027344 2.765625 -2.691406 C 2.765625 -2.429688 2.703125 -2.207031 2.574219 -2.027344 C 2.445312 -1.847656 2.253906 -1.6875 2.003906 -1.550781 L 1.34375 -1.1875 C 0.953125 -0.976562 0.734375 -0.730469 0.683594 -0.453125 L 2.765625 -0.453125 L 2.765625 0 L 0.140625 0 C 0.15625 -0.359375 0.234375 -0.660156 0.375 -0.902344 C 0.519531 -1.140625 0.738281 -1.347656 1.042969 -1.519531 L 1.730469 -1.921875 C 1.914062 -2.027344 2.046875 -2.132812 2.128906 -2.246094 C 2.210938 -2.359375 2.253906 -2.515625 2.253906 -2.710938 C 2.253906 -2.90625 2.1875 -3.070312 2.050781 -3.207031 C 1.914062 -3.339844 1.726562 -3.40625 1.496094 -3.40625 C 1.238281 -3.40625 1.042969 -3.320312 0.917969 -3.152344 C 0.789062 -2.980469 0.722656 -2.75 0.71875 -2.460938 Z M 0.238281 -2.460938 "/></g></g></g><g fill="#222222" fill-opacity="1"><g transform="translate(200.407465, 121.121649)"><g><path d="M 0.800781 -2.234375 C 1.011719 -2.394531 1.261719 -2.472656 1.546875 -2.472656 C 1.890625 -2.472656 2.1875 -2.359375 2.433594 -2.128906 C 2.683594 -1.898438 2.804688 -1.605469 2.804688 -1.246094 C 2.804688 -0.851562 2.6875 -0.527344 2.449219 -0.273438 C 2.207031 -0.0195312 1.875 0.109375 1.441406 0.109375 C 1.066406 0.109375 0.769531 0.015625 0.554688 -0.167969 C 0.335938 -0.351562 0.210938 -0.609375 0.175781 -0.949219 L 0.671875 -0.949219 C 0.695312 -0.742188 0.777344 -0.585938 0.914062 -0.476562 C 1.050781 -0.367188 1.242188 -0.3125 1.484375 -0.3125 C 1.71875 -0.3125 1.914062 -0.394531 2.066406 -0.558594 C 2.214844 -0.71875 2.292969 -0.929688 2.292969 -1.183594 C 2.292969 -1.441406 2.210938 -1.648438 2.054688 -1.804688 C 1.894531 -1.960938 1.691406 -2.039062 1.441406 -2.039062 C 1.15625 -2.039062 0.921875 -1.917969 0.730469 -1.675781 L 0.316406 -1.699219 L 0.605469 -3.75 L 2.59375 -3.75 L 2.59375 -3.285156 L 0.964844 -3.285156 Z M 0.800781 -2.234375 "/></g></g></g></svg>