<?xml version="1.0" encoding="UTF-8"?>
<svg xmlns="http://www.w3.org/2000/svg" version="1.1" viewBox="0 0 250 250">
  <defs>
    <style>
      .cls-1 {
        stroke: #c4a584;
      }

      .cls-1, .cls-2 {
        fill: #fff;
        stroke-miterlimit: 10;
      }

      .cls-3, .cls-4, .cls-5, .cls-6 {
        isolation: isolate;
      }

      .cls-2 {
        display: none;
        stroke: #231f20;
      }

      .cls-4 {
        fill: #9d9a85;
      }

      .cls-4, .cls-5 {
        font-size: 95px;
      }

      .cls-4, .cls-5, .cls-6 {
        font-family: SignPainter-HouseScript, SignPainter;
      }

      .cls-5, .cls-6 {
        fill: #c4a584;
      }

      .cls-6 {
        font-size: 35.5px;
      }
    </style>
  </defs>
  <!-- Generator: Adobe Illustrator 28.7.1, SVG Export Plug-In . SVG Version: 1.2.0 Build 142)  -->
  <g>
    <g id="Layer_1">
      <circle class="cls-1" cx="126.4" cy="123.7" r="114.4"/>
      <g class="cls-3">
        <text class="cls-4" transform="translate(19 133.3)"><tspan x="0" y="0">Cooper</tspan></text>
      </g>
      <circle class="cls-2" cx="123.9" cy="125" r="84.9"/>
      <path class="cls-2" d="M39,125"/>
      <path class="cls-1" d="M208.4,133.3c-4.1,43-40.4,76.6-84.5,76.6s-78.6-32.1-84.1-73.6"/>
      <path class="cls-2" d="M201.6,90.7c4.6,10.5,7.2,22.1,7.2,34.3s-.1,5.5-.4,8.3"/>
      <path class="cls-1" d="M62.3,66.6c15.5-16.3,37.4-26.5,61.6-26.5,34.7,0,64.5,20.8,77.7,50.6"/>
      <path class="cls-2" d="M39,125c0-22.6,8.8-43.1,23.2-58.4"/>
      <g class="cls-3">
        <text class="cls-5" transform="translate(20.3 133.3)"><tspan x="0" y="0">Cooper</tspan></text>
      </g>
      <g class="cls-3">
        <text class="cls-6" transform="translate(125.2 165.4)"><tspan x="0" y="0">CUPS</tspan></text>
      </g>
    </g>
  </g>
</svg>